<svg xmlns="http://www.w3.org/2000/svg" style="width:150px" viewBox="0 0 1118 226"><g fill="none" fill-rule="evenodd" stroke="none" stroke-width="1"><g><path fill="#D04421" d="M279.672 131.063c-.42-2.641-.107-5.316-.437-7.95-.396-2.072-.924-4.086-1.023-6.208-4.148-25.138-15.364-48.931-32.032-68.191-3.191-4.037-7.133-7.513-10.72-11.211-19.2-17.932-43.612-30.348-69.425-35.186-2.63-.256-5.047-1.213-7.72-1.164-2.622-.058-5.12-.768-7.702-1.065a621.159 621.159 0 00-17.542-.05c-4.453-.206-8.692 1.198-13.154 1.222-3.678.776-7.38 1.272-11.043 2.155-25.92 5.928-50.233 19.459-68.673 38.661-4.61 4.516-8.89 9.61-12.684 14.827-9.724 12.879-16.965 27.78-21.666 43.185a218.711 218.711 0 00-3.719 15.686c-.38 4.343-1.699 8.322-1.567 12.697.058 2.048-.157 4.02-.462 6.043-.354 6.25.107 13.011 2.928 18.708 2.944 6.356 7.62 11.087 12.874 15.561a80.176 80.176 0 0015.29 9.47c14.16 7.091 30.118 11.4 45.606 14.39 3.373.527 6.68 1.386 10.078 1.692 2.425.313 4.75.982 7.208 1.081 4.454.305 8.693 1.428 13.171 1.387 3.868 0 7.695 1.09 11.53 1.073 14.094.165 28.196.165 42.282 0 3.86.025 7.703-.957 11.546-1.057 2.507 0 4.916-.206 7.381-.635 3.571-.685 7.192-.62 10.755-1.437 17.327-2.526 34.184-6.348 50.464-12.936 6.358-2.848 13.055-5.78 18.704-9.833 4.577-2.897 8.338-6.645 12.008-10.592 4.85-5.762 8.181-13.209 8.066-20.837-.05-3.145.164-6.414-.314-9.502l-.008.016zm-30.712 5.705c-2.796 5.523-7.777 9.75-13.08 12.763-7.753 4.607-16.824 7.455-25.558 9.56-5.196 1.239-10.466 1.957-15.71 2.98-3.34.075-6.557.67-9.856 1.148-13.402.413-26.787.446-40.188-.033-3.299-.553-6.507-.999-9.855-1.164-4.215-.9-8.47-1.37-12.668-2.361-9.872-2.122-19.793-5.193-28.568-10.278-5.377-3.228-10.053-7.084-12.85-12.838-1.904-4.086-1.945-9.205-1.418-13.605.413-3.08.075-6.051.924-9.081 2.524-16.033 10.136-31.231 21.022-43.218 2.771-3.526 6.218-6.068 9.591-9.131 10.4-8.33 22.795-14.39 35.867-17.081 1.889-.47 3.744-.916 5.699-.95 3.208-.123 6.103-1.18 9.32-1.04 3.257.108 6.572-.173 9.821.149 2.615.545 5.114.925 7.786 1.032 9.591 1.676 18.844 4.986 27.397 9.626 19.15 10.608 34.052 28.796 40.311 49.823 1.246 3.69 2.013 7.455 2.714 11.277 1.039 3.475.354 6.935 1.055 10.443.462 3.913-.09 8.38-1.748 11.97l-.008.01z"></path></g></g></svg>