<svg xmlns="http://www.w3.org/2000/svg" style="width:150px" viewBox="0 0 1118 226"><g fill="none" fill-rule="evenodd" stroke="none" stroke-width="1"><g><path fill="#F8F6EF" d="M367.008267 19L402.053465 19 450.615743 137.168716 499.17802 19 534 19 534 179 505.593465 179 505.593465 72.940991 462.06599 179 439.157228 179 395.406535 72.940991 395.406535 179 367 179 367 19z"></path><path fill="#F8F6EF" fill-rule="nonzero" d="M631.223 102.264c0-5.798-2.104-10.448-6.312-13.958s-9.983-5.261-17.33-5.261c-4.747 0-8.956.916-12.626 2.75s-6.503 4.237-8.49 7.21c-1.989 2.974-3.066 6.22-3.215 9.73H558c.456-7.623 2.866-14.528 7.232-20.714 4.357-6.178 10.289-11.06 17.786-14.644C590.515 63.792 599.164 62 608.956 62c9.791 0 18.481 1.792 26.053 5.377 7.572 3.584 13.462 8.623 17.678 15.106 4.209 6.484 6.313 14 6.313 22.54v74.143h-27.777v-76.902zm-34.66 78.728c-7.498 0-14.2-1.487-20.081-4.46-5.89-2.974-10.446-7.095-13.66-12.356C559.606 158.915 558 153 558 146.443c0-11.133 3.976-19.987 11.937-26.545 7.953-6.558 18.44-9.837 31.447-9.837h21.348c2.759 0 4.855-.686 6.313-2.057 1.45-1.37 2.178-3.279 2.178-5.723v26.314h-25.937c-5.965 0-10.786 1.528-14.464 4.575-3.67 3.056-5.51 7.095-5.51 12.133 0 4.427 1.641 8.012 4.938 10.754 3.289 2.75 7.613 4.121 12.973 4.121 8.723 0 15.566-2.742 20.545-8.234 4.97-5.493 7.464-12.662 7.464-21.516l.455 30.436c-2.145 6.103-6.395 10.985-12.74 14.644-6.355 3.658-13.81 5.492-22.384 5.492v-.008zM731.803 181.106c-11.414 0-21.237-2.522-29.454-7.557-8.216-5.043-14.496-12.03-18.839-20.959-4.343-8.929-6.51-19.28-6.51-31.037 0-11.757 2.167-22.108 6.51-31.037 4.343-8.93 10.582-15.924 18.724-20.96 8.142-5.043 17.85-7.556 29.115-7.556 7.153 0 13.697 1.34 19.638 4.01 5.934 2.67 10.582 6.3 13.928 10.88V63.835H793v94.386h-27.855v8.251c-2.892 4.431-7.383 7.978-13.474 10.649-6.09 2.67-12.715 4.01-19.868 4.01v-.025zm14.158 22.447c5.628 0 10.235-1.943 13.811-5.845 3.577-3.894 5.365-8.822 5.365-14.775v-28.64h27.855v31.385c0 7.937-1.789 14.965-5.365 21.075-3.577 6.11-8.645 10.839-15.188 14.204-6.544 3.356-14.084 5.043-22.605 5.043h-56.855v-22.447h52.982zm-10.277-46.73c9.592 0 17.199-3.207 22.836-9.623 5.628-6.416 8.447-14.965 8.447-25.655 0-10.69-2.819-19.248-8.447-25.655-5.637-6.416-13.244-9.624-22.836-9.624-9.592 0-16.746 3.208-22.374 9.624-5.637 6.416-8.447 14.973-8.447 25.655s2.818 19.239 8.447 25.655c5.628 6.416 13.086 9.623 22.374 9.623z"></path><path fill="#F8F6EF" d="M821 63.838h28.039v18.207c2.888-6.147 7.182-11.02 12.884-14.63C867.625 63.805 874.42 62 882.327 62c8.968 0 16.529 1.921 22.683 5.764s10.523 9.299 13.106 16.36c2.74-6.296 7.56-11.56 14.472-15.786 6.91-4.225 14.776-6.338 23.596-6.338 8.055 0 15.196 1.846 21.432 5.531 6.228 3.685 11.017 8.8 14.365 15.33 3.34 6.529 5.019 13.865 5.019 22.007V180h-27.809v-66.606c0-8.293-2.015-14.905-6.038-19.82-4.032-4.916-9.314-7.378-15.846-7.378-7.446 0-13.378 2.462-17.78 7.377-4.41 4.916-6.615 11.52-6.615 19.82V180h-27.808v-66.606c0-8.293-1.975-14.905-5.924-19.82-3.957-4.916-9.272-7.378-15.96-7.378-7.447 0-13.337 2.462-17.665 7.377-4.328 4.916-6.5 11.52-6.5 19.82V180h-28.039V63.838H821z"></path><path fill="#F8F6EF" fill-rule="nonzero" d="M1090.223 102.264c0-5.798-2.104-10.448-6.312-13.958s-9.983-5.261-17.33-5.261c-4.747 0-8.956.916-12.626 2.75s-6.503 4.237-8.49 7.21c-1.989 2.974-3.066 6.22-3.215 9.73H1017c.456-7.623 2.866-14.528 7.232-20.714 4.357-6.178 10.289-11.06 17.786-14.644 7.497-3.585 16.146-5.377 25.938-5.377 9.791 0 18.482 1.792 26.053 5.377 7.572 3.584 13.462 8.623 17.678 15.106 4.209 6.484 6.313 14 6.313 22.54v74.143h-27.777v-76.902zm-34.66 78.728c-7.498 0-14.2-1.487-20.081-4.46-5.89-2.974-10.446-7.095-13.66-12.356-3.215-5.261-4.822-11.175-4.822-17.733 0-11.133 3.976-19.987 11.937-26.545 7.953-6.558 18.44-9.837 31.447-9.837h21.348c2.759 0 4.855-.686 6.313-2.057 1.45-1.37 2.178-3.279 2.178-5.723v26.314h-25.937c-5.965 0-10.786 1.528-14.464 4.575-3.67 3.056-5.51 7.095-5.51 12.133 0 4.427 1.641 8.012 4.938 10.754 3.289 2.75 7.613 4.121 12.973 4.121 8.723 0 15.566-2.742 20.545-8.234 4.97-5.493 7.464-12.662 7.464-21.516l.455 30.436c-2.145 6.103-6.395 10.985-12.74 14.644-6.355 3.658-13.81 5.492-22.384 5.492v-.008z"></path><path fill="#D04421" d="M279.672 131.063c-.42-2.641-.107-5.316-.437-7.95-.396-2.072-.924-4.086-1.023-6.208-4.148-25.138-15.364-48.931-32.032-68.191-3.191-4.037-7.133-7.513-10.72-11.211-19.2-17.932-43.612-30.348-69.425-35.186-2.63-.256-5.047-1.213-7.72-1.164-2.622-.058-5.12-.768-7.702-1.065a621.159 621.159 0 00-17.542-.05c-4.453-.206-8.692 1.198-13.154 1.222-3.678.776-7.38 1.272-11.043 2.155-25.92 5.928-50.233 19.459-68.673 38.661-4.61 4.516-8.89 9.61-12.684 14.827-9.724 12.879-16.965 27.78-21.666 43.185a218.711 218.711 0 00-3.719 15.686c-.38 4.343-1.699 8.322-1.567 12.697.058 2.048-.157 4.02-.462 6.043-.354 6.25.107 13.011 2.928 18.708 2.944 6.356 7.62 11.087 12.874 15.561a80.176 80.176 0 0015.29 9.47c14.16 7.091 30.118 11.4 45.606 14.39 3.373.527 6.68 1.386 10.078 1.692 2.425.313 4.75.982 7.208 1.081 4.454.305 8.693 1.428 13.171 1.387 3.868 0 7.695 1.09 11.53 1.073 14.094.165 28.196.165 42.282 0 3.86.025 7.703-.957 11.546-1.057 2.507 0 4.916-.206 7.381-.635 3.571-.685 7.192-.62 10.755-1.437 17.327-2.526 34.184-6.348 50.464-12.936 6.358-2.848 13.055-5.78 18.704-9.833 4.577-2.897 8.338-6.645 12.008-10.592 4.85-5.762 8.181-13.209 8.066-20.837-.05-3.145.164-6.414-.314-9.502l-.008.016zm-30.712 5.705c-2.796 5.523-7.777 9.75-13.08 12.763-7.753 4.607-16.824 7.455-25.558 9.56-5.196 1.239-10.466 1.957-15.71 2.98-3.34.075-6.557.67-9.856 1.148-13.402.413-26.787.446-40.188-.033-3.299-.553-6.507-.999-9.855-1.164-4.215-.9-8.47-1.37-12.668-2.361-9.872-2.122-19.793-5.193-28.568-10.278-5.377-3.228-10.053-7.084-12.85-12.838-1.904-4.086-1.945-9.205-1.418-13.605.413-3.08.075-6.051.924-9.081 2.524-16.033 10.136-31.231 21.022-43.218 2.771-3.526 6.218-6.068 9.591-9.131 10.4-8.33 22.795-14.39 35.867-17.081 1.889-.47 3.744-.916 5.699-.95 3.208-.123 6.103-1.18 9.32-1.04 3.257.108 6.572-.173 9.821.149 2.615.545 5.114.925 7.786 1.032 9.591 1.676 18.844 4.986 27.397 9.626 19.15 10.608 34.052 28.796 40.311 49.823 1.246 3.69 2.013 7.455 2.714 11.277 1.039 3.475.354 6.935 1.055 10.443.462 3.913-.09 8.38-1.748 11.97l-.008.01z"></path></g></g></svg>